<?xml version="1.0" encoding="UTF-8"?>
<svg id="Layer_1" xmlns="http://www.w3.org/2000/svg" viewBox="0 0 95.62 100">
  <defs>
    <style>
      .cls-1 {
        fill: #f7f6f5;
      }

      .cls-2 {
        fill: #d8d8d8;
      }

      .cls-2, .cls-3, .cls-4, .cls-5 {
        stroke: #353535;
        stroke-miterlimit: 10;
      }

      .cls-3 {
        fill: #9b9b9b;
      }

      .cls-4 {
        fill: none;
        stroke-width: 2px;
      }

      .cls-5 {
        fill: #ffe49f;
        stroke-width: 3px;
      }

      .cls-6 {
        fill: #353535;
      }

      .cls-7 {
        fill: #f98aac;
      }
    </style>
  </defs>
  <path class="cls-4" d="M58.1,46.71c1.51,1.26,5.4,4.16,11.15,4.74,8.22.82,14.06-3.75,15.26-4.74"/>
  <ellipse class="cls-6" cx="85.53" cy="45.78" rx="1.91" ry="2.99"/>
  <path class="cls-4" d="M65.82,80.3h26.41"/>
  <ellipse class="cls-6" cx="93.26" cy="79.37" rx="1.91" ry="2.99"/>
  <path class="cls-6" d="M44.31,90.45l-8.13-6.4c-.42-.25-.79-.31-1.1-.26-2.97.42-3.65,10.75-3.75,12.48,6.45.85,11.59-.61,12.77-3.59.22-.55.35-1.27.21-2.23Z"/>
  <ellipse class="cls-3" cx="40.67" cy="20.37" rx="11.62" ry="14.5" transform="translate(-4.38 14.1) rotate(-18.68)"/>
  <g>
    <ellipse class="cls-2" cx="19.75" cy="36.6" rx="11.75" ry="15.66" transform="translate(-10.68 8.25) rotate(-18.68)"/>
    <path class="cls-1" d="M15.16,25.03c.43-1.35,3.24-2.14,5.34-1.43,4.15,1.39,6.12,8.77,4.17,14.07-1.01,2.74-3.15,5.16-4.04,4.82-1.26-.48,1.59-5.87-.91-11.08-1.79-3.73-5.07-4.77-4.56-6.39Z"/>
  </g>
  <path class="cls-5" d="M75.59,47.15c0-2.2-.23-5.39-1.46-8.94-3.61-10.41-14.18-19.48-24.82-19.61-16.24-.19-28.61,20.48-28.61,36.97,0,9.8,2.95,18.7,7.76,25.31,3.86,8.46,15.63,14.62,29.55,14.62,11.17,0,28.1-6.19,30.9-20.65,1.93-10-3.49-20.93-13.33-27.7Z"/>
  <path class="cls-6" d="M20.05,59.12c3.6-2.58,9.09-6.13,16.23-9.4,18.9-8.66,38.76-9.5,40.25-5.52.35.94-.47,1.74.12,3.52,1.03,3.1,4.47,3.55,4.47,4.93,0,2.14-8.3,3.78-10.28,4.17-15.23,2.94-17.42,2.32-21.87,3.75-15.75,5.06-20.44,14.2-25.16,11.76-2.01-1.04-4.08-4.07-3.76-13.21Z"/>
  <path class="cls-6" d="M33.28,87.22c5.59-4.55,10.52-7.92,14.14-10.24,6.19-3.97,13.31-6.92,27.55-12.83,2.97-1.23,5.9-2.4,8.87-1.22,4.17,1.65,7.2,7.47,5.65,10.77-1.69,3.59-7.53,1.53-18.33,6.05-1.35.57-3.84,1.95-8.8,4.71-13.31,7.4-15.53,9.5-19.48,9.05-2.17-.25-5.68-1.36-9.59-6.28Z"/>
  <path class="cls-6" d="M32.32,37.02c1.14,1.41,3.04,1.95,4.74,1.38,1.64-.56,2.79-2.07,2.9-3.82"/>
  <path class="cls-6" d="M56.77,31.5c1.14,1.41,3.04,1.95,4.74,1.38,1.64-.56,2.79-2.07,2.9-3.82"/>
  <path class="cls-6" d="M46.38,35.4c-.52-.77.12-2.66,1.53-3.21,1.86-.73,3.84,1.32,3.67,2.29-.23,1.26-4.37,2.13-5.2.92Z"/>
  <ellipse class="cls-7" cx="33.54" cy="39.41" rx="2.16" ry=".79"/>
  <ellipse class="cls-7" cx="65.01" cy="31.64" rx="2.16" ry=".79" transform="translate(-5.8 46.27) rotate(-37.63)"/>
  <path class="cls-4" d="M55.61,23.75c-3.25-8.49-1.91-15.77,1.83-17.77.71-.38,2.39-1.04,5.39-.11"/>
  <ellipse class="cls-6" cx="64.07" cy="6.11" rx="1.97" ry="2.39"/>
  <path class="cls-4" d="M37.97,25.33c-3.25-8.49-1.91-15.77,1.83-17.77.71-.38,2.39-1.04,5.39-.11"/>
  <ellipse class="cls-6" cx="46.43" cy="7.69" rx="1.97" ry="2.39"/>
  <path class="cls-4" d="M58.1,94.98h26.41"/>
  <ellipse class="cls-6" cx="85.53" cy="94.05" rx="1.91" ry="2.99"/>
  <path class="cls-4" d="M23.18,64.56c1.51,1.26,5.4,4.16,11.15,4.74,8.22.82,14.06-3.75,15.26-4.74"/>
  <ellipse class="cls-6" cx="50.61" cy="63.63" rx="1.91" ry="2.99"/>
</svg>