<?xml version="1.0" encoding="UTF-8"?>
<svg id="Layer_1" xmlns="http://www.w3.org/2000/svg" viewBox="0 0 95.62 100">
  <defs>
    <style>
      .cls-1 {
        fill: #f7f6f5;
      }

      .cls-2 {
        fill: #d8d8d8;
      }

      .cls-2, .cls-3, .cls-4, .cls-5, .cls-6 {
        stroke: #353535;
        stroke-miterlimit: 10;
      }

      .cls-3 {
        fill: #9b9b9b;
      }

      .cls-4, .cls-5 {
        fill: none;
      }

      .cls-5 {
        stroke-width: 2px;
      }

      .cls-6 {
        fill: #ffe49f;
        stroke-width: 3px;
      }

      .cls-7 {
        fill: #353535;
      }

      .cls-8 {
        fill: #f98aac;
      }
    </style>
  </defs>
  <ellipse class="cls-3" cx="44.13" cy="15.8" rx="14.5" ry="11.62" transform="translate(15.03 52.54) rotate(-71.32)"/>
  <ellipse class="cls-6" cx="47.17" cy="52.15" rx="39.73" ry="27.8"/>
  <ellipse class="cls-7" cx="28.31" cy="47.17" rx="1.09" ry="3.4"/>
  <ellipse class="cls-7" cx="15.41" cy="47.17" rx="1.09" ry="3.4"/>
  <path class="cls-7" d="M52.54,25.63c-1.03,5.81-2.7,17.13-2.18,29.1.51,11.72,1.52,13.07,1.52,13.07,1.43,6.61,3.18,9.88,1.45,11.82-1.37,1.53-4.13,1.33-8.45,1.02-2.92-.21-5.34-.08-6.73-1.2-4.85-3.91-4.18-16.95-3.3-31.82.33-5.57,1.18-13.31,2.46-22.59"/>
  <path class="cls-7" d="M69.81,28.36c-.15,3.9-.57,15.88-.18,26.7.28,7.95.86,9.88,1.09,10.81,1.15,4.81,2.6,6.51,2.05,8.36-.14.48-.61.8-7.06,2.25-2.73.61-4.1.92-4.37.83-1.17-.37-4.41-2.48-2.82-28.13.48-7.68,1.18-14.09,1.76-18.68"/>
  <path class="cls-7" d="M82.11,59.31l.15-10.35c.08-.48.26-.8.49-1.02,2.19-2.04,10.64,3.94,12.06,4.96-3.4,5.55-7.78,8.62-10.84,7.65-.56-.18-1.21-.53-1.86-1.24Z"/>
  <ellipse class="cls-2" cx="60.58" cy="18.76" rx="15.66" ry="11.75" transform="translate(23.4 70.15) rotate(-71.32)"/>
  <path class="cls-1" d="M65.17,7.2c-.43-1.35-3.24-2.14-5.34-1.43-4.15,1.39-6.12,8.77-4.17,14.07,1.01,2.74,3.15,5.16,4.04,4.82,1.26-.48-1.59-5.87.91-11.08,1.79-3.73,5.07-4.77,4.56-6.39Z"/>
  <path class="cls-4" d="M17.73,48.18c.67.91,2.04,1.47,3.47,1.43,1.67-.05,3.12-.91,3.47-2.09"/>
  <ellipse class="cls-8" cx="31.55" cy="49.78" rx="2.16" ry=".79"/>
  <ellipse class="cls-8" cx="12.16" cy="49.78" rx="2.16" ry=".79"/>
  <path class="cls-5" d="M25.9,35.13c-3.25-8.49-1.91-15.77,1.83-17.77.71-.38,2.39-1.04,5.39-.11"/>
  <ellipse class="cls-7" cx="34.36" cy="17.49" rx="1.97" ry="2.39"/>
  <path class="cls-5" d="M17.87,35.96c3.25-8.49,1.91-15.77-1.83-17.77-.71-.38-2.39-1.04-5.39-.11"/>
  <ellipse class="cls-7" cx="9.41" cy="18.32" rx="1.97" ry="2.39"/>
</svg>