<?xml version="1.0" encoding="UTF-8"?>
<svg id="Layer_1" xmlns="http://www.w3.org/2000/svg" viewBox="0 0 606 765">
  <defs>
    <style>
      .cls-1 {
        fill: #fff;
      }

      .cls-2 {
        fill: none;
        stroke: #476d29;
        stroke-miterlimit: 10;
        stroke-width: 8px;
      }

      .cls-3 {
        fill: #476d29;
      }
    </style>
  </defs>
  <g>
    <rect class="cls-1" x="1.15" y="-2.4" width="604.35" height="767.9"/>
    <path d="M605-1.9v766.9H1.65V-1.9h603.35M606-2.9H.65v768.9h605.35V-2.9h0Z"/>
  </g>
  <path class="cls-2" d="M550.52-44.63c69.49,89.23,75.64,201.37,22.3,270.93-37.97,49.51-95.23,63.31-118.18,67.45"/>
  <g>
    <path class="cls-3" d="M178.83,242.36c-1.35-6.9-25.92-3.38-44.96,11.21-4.38,3.36-7.23,5.54-7.18,7.57.17,6.33,28.53,10.42,45.74-8.09,2.63-2.83,7.01-7.54,6.39-10.7Z"/>
    <g>
      <path class="cls-3" d="M167.73,308.87c3.71,6.99,34.71,1.8,55.39-14.39,4.76-3.72,7.85-6.15,7.2-8.23-2.02-6.48-40.11-8.84-57.29,11.24-2.63,3.07-7,8.18-5.3,11.38Z"/>
      <g>
        <path class="cls-3" d="M151.19,213.74c7.27,3.11,28.14-20.41,34.06-45.99,1.36-5.89,2.25-9.71.44-10.93-5.64-3.77-36.76,18.32-37.51,44.74-.12,4.04-.31,10.76,3.02,12.18Z"/>
        <g>
          <path class="cls-2" d="M-39,611.78c37.9,1.37,90.59-2.58,115.4-36.79,29.34-40.47-7.37-85.99,8.92-167.24,16.56-82.59,103.29-90.97,101.46-141.04-.87-23.84-19.72-58.9-113.44-99.51"/>
          <path class="cls-3" d="M81.92,168.7c-6.15-5.5,7.6-34.82,29.81-51.03,5.11-3.73,8.43-6.15,10.39-4.97,6.09,3.7-1.85,42.01-27.1,53.74-3.86,1.79-10.28,4.78-13.1,2.26Z"/>
          <path class="cls-3" d="M157.09,212.87c-1.22,7.81-32.23,13.03-57.05,4.48-5.71-1.97-9.43-3.25-9.49-5.42-.21-6.78,35.03-21.45,57.82-8.08,3.49,2.05,9.28,5.44,8.72,9.02Z"/>
          <path class="cls-3" d="M98.07,277.72c-6.2,4.91,4.5,34.47,24.15,51.89,4.52,4.01,7.46,6.61,9.39,5.6,6.01-3.15,1.46-41.05-21.39-54.33-3.5-2.03-9.31-5.41-12.15-3.16Z"/>
          <path class="cls-3" d="M136.23,361.97c4.43,6.55-14.73,31.49-38.73,42.13-5.52,2.45-9.11,4.04-10.65,2.49-4.77-4.83,11.04-39.56,36.84-45.29,3.95-.88,10.51-2.34,12.53.67Z"/>
          <path class="cls-3" d="M23.52,155.95c1.92-8.02,34.25-9.85,59.06,2,5.71,2.72,9.42,4.5,9.3,6.78-.36,7.11-37.85,18.32-60.16,1.68-3.41-2.55-9.09-6.78-8.21-10.45Z"/>
          <path class="cls-3" d="M47.96,380.01c-6.2,4.91,4.5,34.47,24.15,51.89,4.52,4.01,7.46,6.61,9.39,5.6,6.01-3.15,1.46-41.05-21.39-54.33-3.5-2.03-9.31-5.41-12.15-3.16Z"/>
          <path class="cls-3" d="M139.73,488.58c4.43,6.55-14.73,31.49-38.73,42.13-5.52,2.45-9.11,4.04-10.65,2.49-4.77-4.83,11.04-39.56,36.84-45.29,3.95-.88,10.51-2.34,12.53.67Z"/>
          <path class="cls-3" d="M44.03,517.81c-6.2,4.91,4.5,34.47,24.15,51.89,4.52,4.01,7.46,6.61,9.39,5.6,6.01-3.15,1.46-41.05-21.39-54.33-3.5-2.03-9.31-5.41-12.15-3.16Z"/>
        </g>
      </g>
    </g>
  </g>
  <path class="cls-3" d="M462.9,289.62c-7.35-3.75-29.73,19.66-36.82,46.22-1.63,6.11-2.69,10.09-.88,11.48,5.65,4.34,38.51-16.9,40.33-44.68.28-4.25.74-11.31-2.62-13.03Z"/>
  <path class="cls-3" d="M429.92,239.77c-6.79,4.69,3.19,35.5,23.19,54.36,4.6,4.34,7.6,7.16,9.68,6.23,6.5-2.91,3.41-41.91-20.17-56.71-3.61-2.26-9.6-6.02-12.71-3.88Z"/>
  <g>
    <path class="cls-2" d="M387.89-31.81c-90.91,20.88-136.03,102.37-117.63,158.32,12.3,37.41,53.34,64.43,100.9,71.91"/>
    <path class="cls-3" d="M342.57,138.29c-1.35-6.9-25.92-3.38-44.96,11.21-4.38,3.36-7.23,5.54-7.18,7.57.17,6.33,28.53,10.42,45.74-8.09,2.63-2.83,7.01-7.54,6.39-10.7Z"/>
    <path class="cls-3" d="M305.35,99.4c6.46-2.76-2.13-26.05-20.39-41.61-4.2-3.58-6.94-5.91-8.91-5.43-6.15,1.5-4.2,30.08,17.5,43.03,3.32,1.98,8.84,5.27,11.8,4.01Z"/>
    <path class="cls-3" d="M349.14,46.18c-2.25,6.66-26.13-.09-43.07-17.08-3.9-3.91-6.43-6.45-6.11-8.46,1.01-6.25,29.66-6.54,44.26,14.09,2.23,3.16,5.95,8.4,4.92,11.45Z"/>
    <path class="cls-3" d="M230.84,38.5c1.35-6.9,25.92-3.38,44.96,11.21,4.38,3.36,7.23,5.54,7.18,7.57-.17,6.33-28.53,10.42-45.74-8.09-2.63-2.83-7.01-7.54-6.39-10.7Z"/>
    <path class="cls-3" d="M223.54,152.74c-5.42-4.48,9.43-24.38,31.35-34.12,5.04-2.24,8.33-3.7,10.08-2.68,5.48,3.18-4.5,30.04-28.98,36.3-3.75.96-9.97,2.55-12.45.5Z"/>
    <path class="cls-3" d="M307.05,231.82c-6.94-1.1-4.28-25.78,9.64-45.32,3.2-4.5,5.29-7.42,7.32-7.44,6.33-.05,11.41,28.15-6.49,46-2.74,2.73-7.29,7.27-10.47,6.76Z"/>
  </g>
  <path class="cls-3" d="M482.91,219.38c-4.2,7.1,17.75,30.91,43.81,39.66,6,2.01,9.9,3.33,11.4,1.6,4.69-5.36-14.44-39.5-42.04-43.06-4.22-.55-11.24-1.45-13.17,1.8Z"/>
  <path class="cls-3" d="M571.49,294.05c-8.22-.71-14.81-32.42-6.76-58.71,1.85-6.05,3.05-9.98,5.33-10.21,7.09-.69,23.72,34.72,10.56,59.25-2.01,3.75-5.36,9.99-9.12,9.66Z"/>
  <path class="cls-3" d="M487.78,334.17c-7.25.65-8.98-24.21,1.65-46.84,2.45-5.21,4.04-8.59,6.1-9.11,6.43-1.62,16.65,24.76,1.67,46.71-2.29,3.36-6.1,8.94-9.42,9.24Z"/>
  <g>
    <path class="cls-3" d="M614.92,475.78c-1.35-6.9-25.92-3.38-44.96,11.21-4.38,3.36-7.23,5.54-7.18,7.57.17,6.33,28.53,10.42,45.74-8.09,2.63-2.83,7.01-7.54,6.39-10.7Z"/>
    <g>
      <path class="cls-3" d="M603.82,542.29c3.71,6.99,34.71,1.8,55.39-14.39,4.76-3.72,7.85-6.15,7.2-8.23-2.02-6.48-40.11-8.84-57.29,11.24-2.63,3.07-7,8.18-5.3,11.38Z"/>
      <g>
        <path class="cls-3" d="M587.28,447.16c7.27,3.11,28.14-20.41,34.06-45.99,1.36-5.89,2.25-9.71.44-10.93-5.64-3.77-36.76,18.32-37.51,44.74-.12,4.04-.31,10.76,3.02,12.18Z"/>
        <g>
          <path class="cls-2" d="M397.09,845.2c37.9,1.37,90.59-2.58,115.4-36.79,29.34-40.47-7.37-85.99,8.92-167.24,16.56-82.59,103.29-90.97,101.46-141.04-.87-23.84-19.72-58.9-113.44-99.51"/>
          <path class="cls-3" d="M518,402.12c-6.15-5.5,7.6-34.82,29.81-51.03,5.11-3.73,8.43-6.15,10.39-4.97,6.09,3.7-1.85,42.01-27.1,53.74-3.86,1.79-10.28,4.78-13.1,2.26Z"/>
          <path class="cls-3" d="M593.17,446.29c-1.22,7.81-32.23,13.03-57.05,4.48-5.71-1.97-9.43-3.25-9.49-5.42-.21-6.78,35.03-21.45,57.82-8.08,3.49,2.05,9.28,5.44,8.72,9.02Z"/>
          <path class="cls-3" d="M534.16,511.14c-6.2,4.91,4.5,34.47,24.15,51.89,4.52,4.01,7.46,6.61,9.39,5.6,6.01-3.15,1.46-41.05-21.39-54.33-3.5-2.03-9.31-5.41-12.15-3.16Z"/>
          <path class="cls-3" d="M572.32,595.39c4.43,6.55-14.73,31.49-38.73,42.13-5.52,2.45-9.11,4.04-10.65,2.49-4.77-4.83,11.04-39.56,36.84-45.29,3.95-.88,10.51-2.34,12.53.67Z"/>
          <path class="cls-3" d="M459.61,389.37c1.92-8.02,34.25-9.85,59.06,2,5.71,2.72,9.42,4.5,9.3,6.78-.36,7.11-37.85,18.32-60.16,1.68-3.41-2.55-9.09-6.78-8.21-10.45Z"/>
          <path class="cls-3" d="M484.05,613.43c-6.2,4.91,4.5,34.47,24.15,51.89,4.52,4.01,7.46,6.61,9.39,5.6,6.01-3.15,1.46-41.05-21.39-54.33-3.5-2.03-9.31-5.41-12.15-3.16Z"/>
          <path class="cls-3" d="M575.82,722c4.43,6.55-14.73,31.49-38.73,42.13-5.52,2.45-9.11,4.04-10.65,2.49-4.77-4.83,11.04-39.56,36.84-45.29,3.95-.88,10.51-2.34,12.53.67Z"/>
          <path class="cls-3" d="M480.12,751.23c-6.2,4.91,4.5,34.47,24.15,51.89,4.52,4.01,7.46,6.61,9.39,5.6,6.01-3.15,1.46-41.05-21.39-54.33-3.5-2.03-9.31-5.41-12.15-3.16Z"/>
        </g>
      </g>
    </g>
  </g>
  <g>
    <path class="cls-3" d="M160.13,660.84c-6.98.82-5.33,25.59,7.79,45.68,3.02,4.62,4.98,7.63,7.01,7.73,6.33.3,12.54-27.66-4.62-46.22-2.63-2.84-6.99-7.56-10.18-7.18Z"/>
    <g>
      <path class="cls-3" d="M225.62,676.92c7.25-3.17,4.41-34.48-10.17-56.32-3.35-5.02-5.54-8.29-7.66-7.8-6.61,1.52-11.84,39.33,6.89,57.98,2.87,2.85,7.63,7.59,10.94,6.14Z"/>
      <g>
        <path class="cls-3" d="M129.51,686.24c3.65-7.02-18.23-29.6-43.3-37.43-5.77-1.8-9.52-2.97-10.86-1.26-4.19,5.34,15.5,38.04,41.78,40.78,4.02.42,10.71,1.12,12.37-2.09Z"/>
        <g>
          <path class="cls-2" d="M512.08,905.91c4.22-37.69,4.26-90.53-27.98-117.84-38.14-32.31-86.31.86-166.09-21.51-81.1-22.74-82.93-109.86-132.99-111.81-23.84-.93-60.22,15.22-107.78,105.62"/>
          <path class="cls-3" d="M79.37,751.92c-5.95,5.72-34.15-10.2-48.64-33.57-3.33-5.38-5.5-8.87-4.17-10.73,4.15-5.79,41.75,5.01,51.54,31.07,1.5,3.99,3.99,10.61,1.26,13.23Z"/>
          <path class="cls-3" d="M129.09,680.3c7.7,1.81,10.56,33.12.17,57.23-2.39,5.55-3.95,9.16-6.12,9.06-6.78-.3-18.75-36.54-3.7-58.27,2.3-3.32,6.13-8.85,9.65-8.02Z"/>
          <path class="cls-3" d="M189.3,744.03c4.42,6.56,34.71-1.88,53.56-20.16,4.34-4.21,7.16-6.94,6.29-8.94-2.69-6.23-40.82-4.55-55.78,17.23-2.29,3.33-6.09,8.87-4.07,11.87Z"/>
          <path class="cls-3" d="M276.19,712.34c6.87-3.92,30.29,17.06,39.09,41.8,2.03,5.69,3.34,9.39,1.68,10.8-5.17,4.39-38.61-13.99-42.39-40.15-.58-4-1.54-10.65,1.61-12.45Z"/>
          <path class="cls-3" d="M62.26,809.19c-7.86-2.52-7.24-34.9,6.45-58.74,3.15-5.49,5.2-9.05,7.46-8.77,7.07.9,15.41,39.12-2.87,60.12-2.8,3.21-7.45,8.55-11.04,7.39Z"/>
          <path class="cls-3" d="M402.71,718.39c6.87-3.92,30.29,17.06,39.09,41.8,2.03,5.69,3.34,9.39,1.68,10.8-5.17,4.39-38.61-13.99-42.39-40.15-.58-4-1.54-10.65,1.61-12.45Z"/>
        </g>
      </g>
    </g>
  </g>
</svg>